<svg width="163" height="200" viewBox="0 0 163 200" fill="none" xmlns="http://www.w3.org/2000/svg">
<path fill-rule="evenodd" clip-rule="evenodd" d="M163 73.2769C162.805 146.266 81.7143 200 81.7143 200C81.7143 200 -0.195142 146.892 0.000292271 73.6636C0.108582 33.0876 36.7436 0.227932 81.6961 0.00125302C126.649 -0.225426 163.108 32.7009 163 73.2769ZM81.7143 166.861C81.7143 166.861 139.154 129.126 139.154 77.6847C139.154 49.0873 113.396 25.8202 81.7143 25.9048C50.0327 25.9894 24.2744 49.0873 24.2744 77.6848C24.2744 129.296 81.7143 166.861 81.7143 166.861Z" fill="#41B883"/>
<path fill-rule="evenodd" clip-rule="evenodd" d="M81.7143 200C81.7143 200 162.805 146.266 163 73.2769C163.108 32.7009 126.649 -0.225426 81.6961 0.00125302C36.7436 0.227932 0.108582 33.0876 0.000292271 73.6636C-0.195142 146.892 81.7143 200 81.7143 200ZM81.7143 166.861C81.7143 166.861 139.154 129.126 139.154 77.6847C139.154 49.0873 113.396 25.8202 81.7143 25.9048C50.0327 25.9894 24.2744 49.0873 24.2744 77.6848C24.2744 129.296 81.7143 166.861 81.7143 166.861Z" fill="#41B883"/>
<path fill-rule="evenodd" clip-rule="evenodd" d="M140 77.3929C139.861 129.58 82.1526 168 82.1526 168C82.1526 168 23.8612 130.028 24.0003 77.6694C24.0773 48.6576 50.1489 25.1629 82.1396 25.0008C114.13 24.8388 140.077 48.3811 140 77.3929ZM82.1526 144.306C82.1526 144.306 123.03 117.325 123.03 80.5445C123.03 60.0974 104.699 43.4614 82.1526 43.5219C59.6061 43.5823 41.2751 60.0974 41.2751 80.5445C41.2751 117.446 82.1526 144.306 82.1526 144.306Z" fill="#35495E"/>
<path fill-rule="evenodd" clip-rule="evenodd" d="M82.1526 168C82.1526 168 139.861 129.58 140 77.3929C140.077 48.3811 114.13 24.8388 82.1396 25.0008C50.1489 25.1629 24.0773 48.6576 24.0003 77.6694C23.8612 130.028 82.1526 168 82.1526 168ZM82.1526 144.306C82.1526 144.306 123.03 117.325 123.03 80.5445C123.03 60.0974 104.699 43.4614 82.1526 43.5219C59.6061 43.5823 41.2751 60.0974 41.2751 80.5445C41.2751 117.446 82.1526 144.306 82.1526 144.306Z" fill="#35495E"/>
<path d="M81.2756 114.551L90.5236 95.5236L109.551 86.2756L90.5236 77.0276L81.2756 58L72.0276 77.0276L53 86.2756L72.0276 95.5236L81.2756 114.551Z" fill="#41B883"/>
</svg>
